<?xml version="1.0" encoding="UTF-8" standalone="no"?>
<!-- Created with Inkscape (http://www.inkscape.org/) -->

<svg
   xmlns:dc="http://purl.org/dc/elements/1.1/"
   xmlns:cc="http://creativecommons.org/ns#"
   xmlns:rdf="http://www.w3.org/1999/02/22-rdf-syntax-ns#"
   xmlns:svg="http://www.w3.org/2000/svg"
   xmlns="http://www.w3.org/2000/svg"
   xmlns:sodipodi="http://sodipodi.sourceforge.net/DTD/sodipodi-0.dtd"
   xmlns:inkscape="http://www.inkscape.org/namespaces/inkscape"
   width="135.46742mm"
   height="135.46667mm"
   viewBox="0 0 135.46742 135.46667"
   version="1.1"
   id="svg8"
   inkscape:version="0.92.4 (5da689c313, 2019-01-14)"
   sodipodi:docname="dentaku-logo.svg">
  <defs
     id="defs2" />
  <sodipodi:namedview
     id="base"
     pagecolor="#ffffff"
     bordercolor="#666666"
     borderopacity="1.0"
     inkscape:pageopacity="0.0"
     inkscape:pageshadow="2"
     inkscape:zoom="0.35"
     inkscape:cx="993.14428"
     inkscape:cy="110.28573"
     inkscape:document-units="mm"
     inkscape:current-layer="layer1"
     showgrid="false"
     inkscape:window-width="1920"
     inkscape:window-height="1016"
     inkscape:window-x="1680"
     inkscape:window-y="27"
     inkscape:window-maximized="1" />
  <metadata
     id="metadata5">
    <rdf:RDF>
      <cc:Work
         rdf:about="">
        <dc:format>image/svg+xml</dc:format>
        <dc:type
           rdf:resource="http://purl.org/dc/dcmitype/StillImage" />
        <dc:title></dc:title>
      </cc:Work>
    </rdf:RDF>
  </metadata>
  <g
     inkscape:label="Layer 1"
     inkscape:groupmode="layer"
     id="layer1"
     transform="translate(155.42419,-45.570236)">
    <path
       id="path815"
       d="m -154.55264,179.54759 c 0.75344,0.94155 1.89239,1.48932 3.09748,1.48932 h 24.07708 c 2.02365,0 3.72381,-1.52239 3.94498,-3.53364 l 1.46245,-13.255 c 7.52925,5.68957 16.78243,8.85114 26.342574,8.85114 h 15.875 c 9.561174,0 18.814356,-3.16157 26.343607,-8.85114 l 1.46141,13.255 c 0.22221,2.01125 1.92237,3.53364 3.94498,3.53364 h 24.07709 c 1.20509,0 2.34507,-0.54777 3.09852,-1.48828 0.75344,-0.94155 1.03766,-2.17352 0.77411,-3.34967 l -15.86777,-70.75331 15.6714,-38.536148 c 0.71003,-1.74563 0.0951,-3.749642 -1.47278,-4.795573 -1.56683,-1.046965 -3.65456,-0.84646 -4.99401,0.478524 l -18.341,18.139461 C -48.573579,66.373101 -60.792993,55.39496 -75.783292,53.729945 v -4.190959 c 0,-2.19108 -1.776636,-3.96875 -3.96875,-3.96875 h -15.875 c -2.192114,0 -3.96875,1.77767 -3.96875,3.96875 v 4.190959 C -114.58712,55.39496 -126.80653,66.373101 -130.3226,80.731914 l -18.341,-18.139461 c -1.33945,-1.324984 -3.42718,-1.525489 -4.99401,-0.479557 -1.56786,1.046964 -2.18384,3.050976 -1.47381,4.796606 l 15.6714,38.536148 -15.86777,70.75331 c -0.26355,1.17615 0.0217,2.40812 0.77515,3.34863 z m 95.056726,-70.47735 2.626196,23.8125 h -13.301514 c -2.730582,-2.56626 -9.414412,-7.9375 -17.519344,-7.9375 -8.104931,0 -14.788764,5.37124 -17.518314,7.9375 h -13.30254 l 2.62619,-23.8125 z m -20.257162,56.09167 h -15.875 c -9.487794,0 -18.606614,-3.80546 -25.286314,-10.49445 l 1.52756,-13.84722 h 15.82125 c 1.12035,0 2.19625,-0.48266 2.94866,-1.31259 0.0599,-0.0661 6.086452,-6.62491 12.926344,-6.62491 6.840927,0 12.866398,6.55877 12.918075,6.61561 0.753442,0.8413 1.828312,1.32189 2.956925,1.32189 h 15.821257 l 1.52756,13.84722 c -6.6797,6.68796 -15.798524,10.49445 -25.286317,10.49445 z m 35.305337,7.9375 c -0.44131,-3.99459 -6.64972,-60.28883 -7.0621,-64.02917 h 8.2672 l 14.35881,64.02917 z m -7.80934,-87.841674 H -75.784326 V 61.73049 c 12.148096,1.74563 21.781617,11.37915 23.527247,23.527246 z m -39.402247,-31.75 h 7.9375 v 31.75 h -7.9375 z m -7.9375,8.222754 V 85.257736 H -123.12407 C -121.37844,73.10964 -111.74492,63.47612 -99.596826,61.73049 Z M -130.1686,92.048019 c 0.7183,0.710034 1.73012,1.147217 2.79052,1.147217 h 79.375001 c 1.02216,0 2.04019,-0.405143 2.79053,-1.147217 l 10.32185,-10.208162 -7.84551,19.292883 c -6.86884,0 -85.732241,0 -89.908731,0 l -7.84551,-19.292883 z m -1.96991,17.019121 h 8.2672 c -0.25218,2.26549 -6.80889,61.7399 -7.06107,64.03227 h -15.56494 z m 0,0"
       inkscape:connector-curvature="0"
       style="fill:#c69249;fill-opacity:1;stroke-width:0.26458332" />
  </g>
</svg>
